<?xml version="1.0" encoding="UTF-8" standalone="no"?>
<!DOCTYPE svg PUBLIC "-//W3C//DTD SVG 1.1//EN" "http://www.w3.org/Graphics/SVG/1.1/DTD/svg11.dtd">
<svg width="100%" height="100%" viewBox="0 0 1216 256" version="1.1" xmlns="http://www.w3.org/2000/svg" xmlns:xlink="http://www.w3.org/1999/xlink" xml:space="preserve" xmlns:serif="http://www.serif.com/" style="fill-rule:evenodd;clip-rule:evenodd;stroke-linejoin:round;stroke-miterlimit:2;">
    <g id="Layer-1" serif:id="Layer 1" transform="matrix(1,0,0,1,0.970852,-588.189)">
        <path id="path4528-7" d="M303.123,718.872L209.983,718.872C210.672,733.188 215.157,744.227 223.436,751.989C231.888,759.751 241.374,763.631 251.896,763.631C262.417,763.631 271.386,761.389 278.803,756.905C286.392,752.42 291.48,748.022 294.068,743.71C295.448,741.985 297,741.726 298.725,742.934L305.71,749.919C306.745,750.954 307.263,751.903 307.263,752.765C307.263,753.455 306.831,754.404 305.969,755.611C305.279,756.818 303.727,758.716 301.312,761.303C298.897,763.89 295.448,766.822 290.963,770.1C286.651,773.377 280.959,776.136 273.887,778.379C266.988,780.621 259.571,781.742 251.637,781.742C233.526,781.742 218.348,775.791 206.102,763.89C194.028,751.989 187.991,736.034 187.991,716.026C187.991,695.846 194.028,679.977 206.102,668.421C218.175,656.692 232.923,650.828 250.343,650.828C267.937,650.828 281.735,656.52 291.739,667.904C301.743,679.115 306.745,694.294 306.745,713.439L306.745,715.509C306.745,717.751 305.538,718.872 303.123,718.872ZM285.271,703.09C284.754,692.396 281.39,683.858 275.181,677.476C268.972,671.095 260.692,667.904 250.343,667.904C239.994,667.904 231.112,670.836 223.695,676.7C216.278,682.565 211.88,691.361 210.5,703.09L285.271,703.09Z" style="fill:rgb(33,33,33);fill-rule:nonzero;"/>
        <path id="path4530-9" d="M450.063,779.931L425.484,779.931C418.067,779.931 414.359,776.309 414.359,769.065L414.359,701.02C414.359,691.016 411.944,683.255 407.114,677.735C402.285,672.216 395.213,669.456 385.899,669.456C372.618,669.456 362.269,674.889 354.852,685.756C353.99,686.791 352.869,688.688 351.489,691.448L351.489,762.597L365.201,762.597C367.443,762.597 368.565,763.631 368.565,765.701L368.565,776.826C368.565,778.896 367.443,779.931 365.201,779.931L315.785,779.931C313.543,779.931 312.422,778.896 312.422,776.826L312.422,765.701C312.422,763.631 313.543,762.597 315.785,762.597L330.015,762.597L330.015,669.974L315.785,669.974C313.543,669.974 312.422,668.939 312.422,666.869L312.422,655.744C312.422,653.674 313.543,652.639 315.785,652.639L346.056,652.639C348.298,652.639 349.419,653.674 349.419,655.744L348.902,673.337L349.678,673.337C358.647,658.331 372.532,650.828 391.332,650.828C405.131,650.828 415.911,654.881 423.673,662.988C431.434,671.095 435.401,682.047 435.574,695.846L435.574,762.597L450.063,762.597C452.305,762.597 453.426,763.631 453.426,765.701L453.426,776.826C453.426,778.896 452.305,779.931 450.063,779.931Z" style="fill:rgb(33,33,33);fill-rule:nonzero;"/>
        <path id="path4532-2" d="M513.034,840.472C504.41,840.472 497.856,839.869 493.371,838.661C489.059,837.454 485.523,836.333 482.763,835.298C480.176,834.436 477.934,833.487 476.037,832.452C474.139,831.59 472.328,830.641 470.603,829.606C463.014,824.604 460.168,820.982 462.065,818.74L468.792,809.167C469.827,807.615 471.293,807.528 473.191,808.908C473.363,808.908 473.881,809.253 474.743,809.943C475.778,810.805 476.726,811.582 477.589,812.271C478.624,812.961 479.917,813.738 481.47,814.6C483.195,815.635 485.092,816.497 487.162,817.187C489.231,818.05 491.474,818.826 493.888,819.516C499.58,821.068 505.876,821.844 512.775,821.844C525.194,821.844 535.112,818.826 542.528,812.789C550.118,806.924 553.912,797.61 553.912,784.847L553.912,755.352C550.808,762.597 545.633,768.806 538.389,773.98C531.317,779.155 522.434,781.742 511.74,781.742C494.147,781.742 480.004,775.619 469.31,763.373C458.788,751.126 453.528,735.258 453.528,715.768C453.528,696.277 458.875,680.581 469.568,668.68C480.435,656.778 494.492,650.828 511.74,650.828C522.434,650.828 531.403,653.329 538.648,658.331C546.064,663.16 551.411,669.111 554.689,676.183L555.206,676.183L554.947,655.744C554.947,653.674 555.982,652.639 558.052,652.639L588.581,652.639C590.651,652.639 591.686,653.674 591.686,655.744L591.686,666.869C591.686,668.939 590.651,669.973 588.581,669.973L574.61,669.973L574.61,784.847C574.61,803.302 568.918,817.187 557.534,826.501C546.323,835.815 531.49,840.472 513.034,840.472L513.034,840.472ZM474.743,716.285C474.743,730.429 478.538,741.899 486.127,750.695C493.716,759.319 503.202,763.631 514.586,763.631C525.97,763.631 535.37,759.319 542.787,750.695C550.376,742.071 554.171,730.515 554.171,716.026C554.171,701.538 550.376,690.068 542.787,681.616C535.37,673.164 525.97,668.939 514.586,668.939C503.202,668.939 493.716,673.251 486.127,681.875C478.538,690.499 474.743,701.969 474.743,716.285Z" style="fill:rgb(33,33,33);fill-rule:nonzero;"/>
        <path id="path4534-0" d="M702.335,763.631C690.262,775.705 674.824,781.742 656.024,781.742C637.223,781.742 621.786,775.791 609.712,763.89C597.639,751.816 591.602,735.862 591.602,716.026C591.602,696.018 597.725,680.15 609.971,668.421C622.217,656.692 637.568,650.828 656.024,650.828C674.652,650.828 690.003,656.779 702.077,668.68C714.323,680.409 720.446,696.191 720.446,716.026C720.446,735.689 714.409,751.558 702.335,763.631ZM613.334,716.026C613.334,730.17 617.474,741.64 625.753,750.437C634.032,759.233 644.123,763.631 656.024,763.631C668.098,763.631 678.274,759.233 686.553,750.437C694.832,741.64 698.972,730.17 698.972,716.026C698.972,701.883 694.746,690.499 686.295,681.875C678.015,673.251 668.011,668.939 656.283,668.939C644.554,668.939 634.464,673.251 626.012,681.875C617.56,690.499 613.334,701.883 613.334,716.026Z" style="fill:rgb(33,33,33);fill-rule:nonzero;"/>
        <g id="path4566" transform="matrix(1,0,0,1,312.046,342.242)">
            <path d="M-211.533,388.23L-213.474,387.499C-213.485,387.496 -213.497,387.49 -213.507,387.488L-215.662,386.683C-215.671,386.68 -215.681,386.675 -215.69,386.672L-217.845,385.878C-217.853,385.875 -217.865,385.87 -217.874,385.867L-220.029,385.083C-220.037,385.08 -220.042,385.075 -220.051,385.072L-222.206,384.294C-222.214,384.291 -222.226,384.285 -222.235,384.283L-224.39,383.511C-224.398,383.508 -224.403,383.508 -224.412,383.505L-226.567,382.739C-226.575,382.736 -226.582,382.73 -226.59,382.727L-228.745,381.972C-228.751,381.969 -228.757,381.963 -228.763,381.96L-230.917,381.21C-230.926,381.208 -230.931,381.207 -230.939,381.205L-233.094,380.455C-233.1,380.452 -233.106,380.452 -233.112,380.449L-235.267,379.705C-235.275,379.703 -235.282,379.702 -235.29,379.699L-237.445,378.967C-237.451,378.964 -237.455,378.964 -237.461,378.961L-239.616,378.229C-239.621,378.226 -239.628,378.226 -239.633,378.223L-241.788,377.495L-241.8,377.489L-243.955,376.767C-243.96,376.765 -243.965,376.764 -243.971,376.761L-246.127,376.045C-246.133,376.043 -246.137,376.042 -246.143,376.039L-248.298,375.329L-248.31,375.323L-250.464,374.619C-250.47,374.616 -250.476,374.616 -250.482,374.613L-252.637,373.907L-252.648,373.901L-254.803,373.201L-254.813,373.195L-256.968,372.501C-256.974,372.499 -256.98,372.498 -256.986,372.495L-259.14,371.801L-259.152,371.795L-261.307,371.107L-261.318,371.101L-263.473,370.419L-263.485,370.413L-263.857,370.296L-263.857,388.748L-262.364,389.232L-260.227,389.92L-258.083,390.619L-255.944,391.319L-253.801,392.025L-251.662,392.73L-249.523,393.44L-247.386,394.158L-245.248,394.879L-240.97,396.335L-238.839,397.067L-236.7,397.811L-234.567,398.556L-232.435,399.306L-230.302,400.067L-228.175,400.828L-226.042,401.6L-223.915,402.377L-221.788,403.161L-219.666,403.955L-217.539,404.755L-215.423,405.565L-213.301,406.382L-211.186,407.21L-209.075,408.054L-206.964,408.903L-204.859,409.769L-202.76,410.646L-200.667,411.541L-198.578,412.453L-196.501,413.38L-194.429,414.329L-192.368,415.302L-190.325,416.301L-188.297,417.329L-186.288,418.384L-184.31,419.484L-182.372,420.622L-180.494,421.81L-178.695,423.06L-177.034,424.354L-175.618,425.67L-175.401,425.932L-169.774,438.262L-175.562,421.794L-176.64,419.828L-178.345,417.411L-180.178,415.157L-182.082,413.018L-184.043,410.98L-186.043,409.02L-188.064,407.121L-190.102,405.27L-192.157,403.472L-194.224,401.711L-196.306,399.984L-198.389,398.289L-200.483,396.618L-202.577,394.98L-204.682,393.358L-206.787,391.759L-208.897,390.175L-211.007,388.615L-211.533,388.23Z" style="fill:rgb(152,78,163);fill-rule:nonzero;"/>
        </g>
        <g id="path4571" transform="matrix(1,0,0,1,312.046,342.242)">
            <path d="M-219.967,360.852L-220.273,360.645C-220.282,360.64 -220.287,360.634 -220.295,360.628L-222.45,359.18C-222.459,359.174 -222.471,359.168 -222.48,359.162L-224.634,357.724C-224.643,357.718 -224.648,357.713 -224.657,357.707L-226.811,356.286C-226.82,356.28 -226.832,356.275 -226.841,356.269L-228.995,354.853C-229.004,354.847 -229.009,354.841 -229.018,354.836L-231.172,353.431C-231.181,353.428 -231.187,353.422 -231.196,353.42L-233.351,352.019C-233.359,352.016 -233.366,352.011 -233.374,352.008L-235.523,350.619C-235.532,350.613 -235.537,350.608 -235.545,350.602L-237.7,349.225C-237.708,349.222 -237.715,349.217 -237.723,349.214L-239.878,347.843C-239.887,347.84 -239.892,347.834 -239.9,347.831L-242.051,346.465C-242.059,346.462 -242.064,346.456 -242.073,346.453L-244.228,345.098C-244.236,345.096 -244.243,345.09 -244.251,345.087L-246.4,343.742C-246.409,343.739 -246.415,343.734 -246.424,343.731L-248.578,342.394C-248.584,342.391 -248.589,342.385 -248.595,342.382L-250.749,341.049C-250.755,341.046 -250.761,341.041 -250.767,341.038L-252.922,339.717C-252.93,339.714 -252.937,339.708 -252.945,339.705L-255.1,338.388C-255.106,338.386 -255.111,338.38 -255.116,338.377L-257.261,337.076C-257.266,337.073 -257.273,337.068 -257.278,337.065L-259.433,335.766C-259.439,335.763 -259.445,335.757 -259.451,335.754L-261.605,334.455C-261.611,334.453 -261.616,334.452 -261.622,334.449L-263.776,333.16C-263.782,333.157 -263.788,333.152 -263.794,333.149L-263.858,333.111L-263.858,353.633L-262.105,354.702L-259.966,356.013L-257.834,357.335L-255.696,358.662L-253.564,359.995L-251.425,361.334L-249.292,362.683L-247.159,364.044L-245.026,365.405L-242.894,366.782L-240.761,368.164L-238.628,369.553L-236.497,370.953L-234.368,372.364L-232.235,373.785L-230.108,375.213L-227.981,376.652L-225.855,378.1L-223.728,379.567L-221.606,381.039L-219.484,382.527L-217.363,384.027L-215.242,385.543L-213.125,387.071L-211.008,388.615L-208.899,390.175L-206.788,391.759L-204.683,393.358L-202.578,394.98L-200.485,396.617L-198.39,398.289L-196.307,399.984L-194.226,401.711L-192.159,403.471L-190.104,405.27L-188.066,407.12L-186.044,409.02L-184.045,410.98L-182.084,413.018L-180.179,415.157L-178.347,417.411L-176.642,419.828L-175.564,421.794L-169.789,438.226L-175.643,418.58L-177.137,415.019L-179.015,411.431L-180.969,408.121L-182.974,405.005L-185.002,402.029L-187.057,399.163L-189.122,396.38L-191.199,393.67L-193.288,391.02L-195.381,388.428L-197.481,385.877L-199.585,383.374L-201.69,380.901L-203.807,378.474L-205.918,376.074L-208.033,373.704L-210.15,371.361L-212.271,369.049L-214.392,366.755L-216.515,364.489L-218.636,362.246L-219.967,360.852Z" style="fill:rgb(231,41,138);fill-rule:nonzero;"/>
        </g>
        <g id="path4533" transform="matrix(1,0,0,1,312.046,342.242)">
            <path d="M-263.857,318.774L-263.349,319.224L-261.216,321.124L-259.089,323.04L-256.956,324.966L-254.823,326.906L-252.69,328.86L-250.559,330.826L-248.431,332.809L-246.298,334.808L-244.166,336.818L-242.038,338.846L-239.905,340.885L-237.778,342.944L-235.651,345.017L-233.518,347.11L-231.392,349.215L-229.265,351.342L-227.138,353.481L-225.011,355.646L-222.884,357.824L-220.761,360.023L-218.634,362.245L-216.513,364.488L-214.391,366.754L-212.269,369.048L-210.148,371.359L-208.032,373.703L-205.916,376.073L-203.806,378.472L-201.689,380.9L-199.584,383.372L-197.479,385.876L-195.38,388.426L-193.287,391.019L-191.198,393.669L-189.121,396.379L-187.055,399.162L-185,402.027L-182.973,405.004L-180.967,408.119L-179.013,411.43L-177.135,415.017L-175.641,418.578L-169.776,438.262L-175.691,415.157L-177.452,409.753L-179.445,404.687L-181.49,400.028L-183.556,395.635L-185.639,391.425L-187.732,387.366L-189.837,383.427L-191.942,379.584L-194.053,375.83L-196.169,372.147L-198.285,368.536L-200.406,364.983L-202.528,361.495L-204.649,358.051L-206.776,354.663L-208.899,351.32L-211.026,348.021L-213.147,344.766L-215.274,341.551L-217.401,338.374L-217.442,338.31L-218.992,336.764C-219,336.756 -219.007,336.744 -219.015,336.736L-221.17,334.603L-221.198,334.573L-223.353,332.458C-223.361,332.45 -223.373,332.444 -223.382,332.436L-225.531,330.336L-225.559,330.308L-227.713,328.231C-227.722,328.222 -227.728,328.211 -227.737,328.201L-229.892,326.136C-229.9,326.128 -229.911,326.122 -229.919,326.113L-232.074,324.064L-232.098,324.041L-234.253,322.008L-234.276,321.986L-236.431,319.964L-236.453,319.941L-238.608,317.936C-238.616,317.927 -238.628,317.922 -238.637,317.913L-240.786,315.926C-240.794,315.917 -240.807,315.911 -240.815,315.903L-242.97,313.931L-242.992,313.908L-245.147,311.949L-245.17,311.926L-247.325,309.976C-247.334,309.97 -247.339,309.965 -247.347,309.959L-249.502,308.026L-249.527,308.003L-251.682,306.081C-251.69,306.075 -251.697,306.07 -251.705,306.064L-253.86,304.154L-253.882,304.131L-256.033,302.239C-256.041,302.233 -256.046,302.227 -256.055,302.222L-258.21,300.339C-258.218,300.334 -258.225,300.328 -258.233,300.322L-260.388,298.45L-260.41,298.427L-262.565,296.572C-262.573,296.566 -262.58,296.56 -262.588,296.555L-263.858,295.465L-263.857,318.774Z" style="fill:rgb(77,175,74);fill-rule:nonzero;"/>
        </g>
        <g id="path4546" transform="matrix(1,0,0,1,312.046,342.242)">
            <path d="M-306.608,249.947C-308.881,249.947 -310.017,250.997 -310.017,253.095L-310.017,266.471C-310.017,268.569 -308.881,269.617 -306.608,269.617L-286.675,269.617L-286.675,418.589L-306.608,418.589C-308.881,418.589 -310.017,419.638 -310.017,421.737L-310.017,435.112C-310.017,437.21 -308.881,438.259 -306.608,438.259L-243.663,438.259C-241.389,438.259 -240.252,437.21 -240.252,435.112L-240.252,421.737C-240.252,419.638 -241.389,418.589 -243.663,418.589L-263.857,418.589L-263.857,276.83L-262.103,278.917L-259.976,281.484L-257.85,284.072L-255.717,286.682L-253.59,289.315L-251.457,291.975L-249.33,294.663L-247.202,297.373L-245.07,300.111L-242.942,302.878L-240.815,305.665L-238.682,308.487L-236.555,311.336L-234.428,314.213L-232.295,317.118L-230.168,320.056L-228.041,323.027L-225.914,326.025L-223.788,329.059L-221.655,332.129L-219.528,335.229L-217.399,338.372L-215.272,341.55L-213.145,344.765L-211.024,348.02L-208.897,351.319L-206.775,354.661L-204.648,358.05L-202.527,361.494L-200.404,364.981L-198.283,368.535L-196.168,372.146L-194.051,375.828L-191.94,379.583L-189.835,383.425L-187.73,387.364L-185.637,391.423L-183.554,395.633L-181.489,400.026L-179.444,404.686L-177.45,409.751L-175.689,415.155L-169.774,438.26L-146.883,438.26C-144.61,438.26 -143.473,437.21 -143.473,435.112L-143.473,269.619L-123.279,269.619C-121.181,269.619 -120.131,268.569 -120.131,266.471L-120.131,253.095C-120.131,250.997 -121.181,249.947 -123.279,249.947L-186.485,249.947C-188.583,249.947 -189.633,250.997 -189.633,253.095L-189.633,266.471C-189.633,268.569 -188.583,269.619 -186.485,269.619L-166.291,269.619L-166.291,391.044L-167.687,388.075C-167.712,388.02 -167.738,387.967 -167.765,387.914L-169.919,383.564C-169.942,383.522 -169.963,383.479 -169.985,383.437L-172.14,379.255C-172.157,379.22 -172.177,379.184 -172.196,379.149L-174.351,375.112C-174.368,375.081 -174.385,375.048 -174.402,375.017L-176.557,371.091C-176.571,371.063 -176.586,371.035 -176.601,371.007L-178.755,367.175C-178.77,367.153 -178.781,367.126 -178.795,367.102L-180.95,363.354C-180.964,363.334 -180.974,363.313 -180.988,363.292L-183.143,359.616C-183.154,359.596 -183.165,359.576 -183.176,359.555L-185.331,355.945C-185.342,355.925 -185.354,355.907 -185.365,355.889L-187.519,352.341C-187.531,352.324 -187.542,352.307 -187.553,352.29L-189.708,348.796C-189.719,348.779 -189.731,348.763 -189.742,348.746L-191.896,345.308C-191.905,345.291 -191.916,345.275 -191.924,345.258L-194.079,341.87C-194.087,341.853 -194.1,341.837 -194.108,341.82L-196.263,338.478C-196.272,338.463 -196.282,338.447 -196.291,338.432L-198.446,335.133C-198.454,335.119 -198.466,335.104 -198.475,335.089L-200.63,331.829C-200.638,331.815 -200.649,331.803 -200.658,331.791L-202.812,328.57C-202.821,328.555 -202.833,328.544 -202.842,328.53L-204.996,325.353C-205.005,325.339 -205.016,325.327 -205.024,325.315L-207.179,322.171C-207.188,322.157 -207.2,322.146 -207.208,322.132L-209.363,319.022C-209.372,319.011 -209.382,318.999 -209.391,318.988L-211.54,315.912C-211.548,315.901 -211.561,315.89 -211.569,315.878L-213.724,312.84C-213.732,312.826 -213.743,312.815 -213.752,312.802L-215.907,309.798C-215.915,309.787 -215.922,309.775 -215.93,309.764L-218.085,306.788C-218.093,306.776 -218.104,306.765 -218.113,306.754L-220.267,303.811C-220.276,303.8 -220.288,303.788 -220.297,303.777L-222.452,300.861C-222.46,300.849 -222.465,300.838 -222.474,300.828L-224.63,297.946C-224.638,297.934 -224.649,297.923 -224.658,297.912L-226.812,295.058C-226.821,295.047 -226.827,295.036 -226.836,295.025L-228.991,292.203C-228.999,292.192 -229.01,292.181 -229.019,292.17L-231.173,289.37C-231.182,289.359 -231.188,289.348 -231.197,289.338L-233.352,286.567C-233.36,286.555 -233.371,286.544 -233.379,286.533L-235.534,283.789C-235.543,283.781 -235.549,283.769 -235.558,283.761L-237.712,281.039L-237.74,281.011L-239.895,278.317C-239.904,278.306 -239.91,278.295 -239.919,278.284L-242.073,275.618L-242.101,275.59L-244.256,272.946C-244.264,272.935 -244.271,272.923 -244.279,272.912L-246.434,270.296L-246.462,270.268L-248.617,267.674C-248.625,267.663 -248.632,267.652 -248.64,267.642L-250.795,265.07L-250.823,265.042L-252.973,262.493L-253.001,262.464L-255.156,259.943C-255.164,259.931 -255.171,259.92 -255.179,259.909L-257.334,257.41L-257.362,257.382L-259.517,254.899C-259.525,254.891 -259.532,254.879 -259.54,254.87L-261.695,252.41L-261.723,252.381C-262.435,251.57 -263.149,250.758 -263.857,249.947L-306.608,249.947Z" style="fill:rgb(33,33,33);fill-rule:nonzero;"/>
        </g>
        <g transform="matrix(2.70984,0,0,2.70984,-225.049,1070.56)">
            <path d="M408.348,-107.226C409.116,-107.226 409.596,-107.706 409.596,-108.474L409.596,-122.202C409.596,-122.97 409.116,-123.546 408.348,-123.546L402.876,-123.546C402.108,-123.546 401.628,-122.97 401.628,-122.202L401.628,-114.426L368.7,-114.426L407.676,-167.418C408.636,-168.57 409.596,-170.106 409.596,-171.354L409.596,-174.906C409.596,-175.674 409.116,-176.154 408.348,-176.154L358.62,-176.154C357.852,-176.154 357.276,-175.674 357.276,-174.906L357.276,-161.178C357.276,-160.41 357.852,-159.834 358.62,-159.834L363.996,-159.834C364.764,-159.834 365.34,-160.41 365.34,-161.178L365.34,-168.954L398.172,-168.954L359.196,-115.866C358.332,-114.81 357.276,-113.466 357.276,-112.602L357.276,-108.474C357.276,-107.706 357.852,-107.226 358.62,-107.226L408.348,-107.226Z" style="fill:rgb(32,32,32);fill-rule:nonzero;"/>
        </g>
        <g transform="matrix(2.70984,0,0,2.70984,-225.049,1070.56)">
            <path d="M438.3,-106.554C452.028,-106.554 462.204,-116.058 462.204,-131.034C462.204,-146.01 451.74,-155.13 438.396,-155.13C425.052,-155.13 414.396,-146.202 414.396,-131.034C414.396,-115.962 424.668,-106.554 438.3,-106.554ZM438.3,-113.274C429.756,-113.274 422.46,-120.09 422.46,-130.938C422.46,-141.882 430.044,-148.41 438.396,-148.41C446.652,-148.41 454.236,-141.882 454.236,-130.938C454.236,-120.09 446.94,-113.274 438.3,-113.274Z" style="fill:rgb(32,32,32);fill-rule:nonzero;"/>
        </g>
        <g transform="matrix(2.70984,0,0,2.70984,-225.049,1070.56)">
            <path d="M493.02,-106.554C506.748,-106.554 516.924,-116.058 516.924,-131.034C516.924,-146.01 506.46,-155.13 493.116,-155.13C479.772,-155.13 469.116,-146.202 469.116,-131.034C469.116,-115.962 479.388,-106.554 493.02,-106.554ZM493.02,-113.274C484.476,-113.274 477.18,-120.09 477.18,-130.938C477.18,-141.882 484.764,-148.41 493.116,-148.41C501.372,-148.41 508.956,-141.882 508.956,-130.938C508.956,-120.09 501.66,-113.274 493.02,-113.274Z" style="fill:rgb(32,32,32);fill-rule:nonzero;"/>
        </g>
    </g>
</svg>
